<svg id="visual" viewBox="0 0 900 600" width="900" height="600" xmlns="http://www.w3.org/2000/svg" xmlns:xlink="http://www.w3.org/1999/xlink" version="1.1"><rect x="0" y="0" width="900" height="600" fill="#2f4f4f"></rect><path d="M0 334L15 334C30 334 60 334 90 343.8C120 353.7 150 373.3 180 378C210 382.7 240 372.3 270 374C300 375.7 330 389.3 360 388.7C390 388 420 373 450 369.8C480 366.7 510 375.3 540 379.8C570 384.3 600 384.7 630 387.7C660 390.7 690 396.3 720 384C750 371.7 780 341.3 810 335.8C840 330.3 870 349.7 885 359.3L900 369L900 601L885 601C870 601 840 601 810 601C780 601 750 601 720 601C690 601 660 601 630 601C600 601 570 601 540 601C510 601 480 601 450 601C420 601 390 601 360 601C330 601 300 601 270 601C240 601 210 601 180 601C150 601 120 601 90 601C60 601 30 601 15 601L0 601Z" fill="#001122"></path><path d="M0 433L15 433.8C30 434.7 60 436.3 90 427.2C120 418 150 398 180 391.5C210 385 240 392 270 403.7C300 415.3 330 431.7 360 441.8C390 452 420 456 450 455.2C480 454.3 510 448.7 540 443.8C570 439 600 435 630 425.3C660 415.7 690 400.3 720 397.3C750 394.3 780 403.7 810 406.8C840 410 870 407 885 405.5L900 404L900 601L885 601C870 601 840 601 810 601C780 601 750 601 720 601C690 601 660 601 630 601C600 601 570 601 540 601C510 601 480 601 450 601C420 601 390 601 360 601C330 601 300 601 270 601C240 601 210 601 180 601C150 601 120 601 90 601C60 601 30 601 15 601L0 601Z" fill="#013a4d"></path><path d="M0 509L15 501.7C30 494.3 60 479.7 90 471.8C120 464 150 463 180 466.3C210 469.7 240 477.3 270 483.3C300 489.3 330 493.7 360 490.7C390 487.7 420 477.3 450 470.7C480 464 510 461 540 457.7C570 454.3 600 450.7 630 448.2C660 445.7 690 444.3 720 445.8C750 447.3 780 451.7 810 456.3C840 461 870 466 885 468.5L900 471L900 601L885 601C870 601 840 601 810 601C780 601 750 601 720 601C690 601 660 601 630 601C600 601 570 601 540 601C510 601 480 601 450 601C420 601 390 601 360 601C330 601 300 601 270 601C240 601 210 601 180 601C150 601 120 601 90 601C60 601 30 601 15 601L0 601Z" fill="#00676f"></path><path d="M0 559L15 557.2C30 555.3 60 551.7 90 545.7C120 539.7 150 531.3 180 532C210 532.7 240 542.3 270 546.8C300 551.3 330 550.7 360 540.7C390 530.7 420 511.3 450 503.5C480 495.7 510 499.3 540 505.3C570 511.3 600 519.7 630 523.8C660 528 690 528 720 524.7C750 521.3 780 514.7 810 509.3C840 504 870 500 885 498L900 496L900 601L885 601C870 601 840 601 810 601C780 601 750 601 720 601C690 601 660 601 630 601C600 601 570 601 540 601C510 601 480 601 450 601C420 601 390 601 360 601C330 601 300 601 270 601C240 601 210 601 180 601C150 601 120 601 90 601C60 601 30 601 15 601L0 601Z" fill="#009473"></path></svg>